<mxfile host="app.diagrams.net" agent="Mozilla/5.0 (Windows NT 10.0; Win64; x64) AppleWebKit/537.36 (KHTML, like Gecko) Chrome/129.0.0.0 Safari/537.36 Edg/129.0.0.0" version="24.7.16">
  <diagram name="第 1 页" id="ZgPbQbB1jo8Fz_2qZaoZ">
    <mxGraphModel dx="2507" dy="2545" grid="1" gridSize="10" guides="1" tooltips="1" connect="1" arrows="1" fold="1" page="1" pageScale="1" pageWidth="827" pageHeight="1169" math="0" shadow="0">
      <root>
        <mxCell id="0" />
        <mxCell id="1" parent="0" />
        <mxCell id="1JR1-Q1OFeAUL54vQRaG-36" value="流程圖" style="swimlane;align=center;fontSize=17;" parent="1" vertex="1">
          <mxGeometry x="150" y="-20" width="677" height="1130" as="geometry" />
        </mxCell>
        <mxCell id="1JR1-Q1OFeAUL54vQRaG-102" style="edgeStyle=orthogonalEdgeStyle;rounded=0;orthogonalLoop=1;jettySize=auto;html=1;exitX=0.5;exitY=1;exitDx=0;exitDy=0;exitPerimeter=0;entryX=0.5;entryY=0;entryDx=0;entryDy=0;align=center;fontSize=17;" parent="1JR1-Q1OFeAUL54vQRaG-36" source="1JR1-Q1OFeAUL54vQRaG-1" target="1JR1-Q1OFeAUL54vQRaG-4" edge="1">
          <mxGeometry relative="1" as="geometry" />
        </mxCell>
        <mxCell id="1JR1-Q1OFeAUL54vQRaG-1" value="開始" style="strokeWidth=2;html=1;shape=mxgraph.flowchart.terminator;whiteSpace=wrap;fillColor=#f0a30a;strokeColor=#BD7000;fontColor=#ffffff;align=center;fontSize=17;" parent="1JR1-Q1OFeAUL54vQRaG-36" vertex="1">
          <mxGeometry x="292.5" y="35" width="100" height="60" as="geometry" />
        </mxCell>
        <mxCell id="1JR1-Q1OFeAUL54vQRaG-103" style="edgeStyle=orthogonalEdgeStyle;rounded=0;orthogonalLoop=1;jettySize=auto;html=1;exitX=0.5;exitY=1;exitDx=0;exitDy=0;entryX=0.5;entryY=0;entryDx=0;entryDy=0;align=center;fontSize=17;" parent="1JR1-Q1OFeAUL54vQRaG-36" source="1JR1-Q1OFeAUL54vQRaG-4" target="1JR1-Q1OFeAUL54vQRaG-5" edge="1">
          <mxGeometry relative="1" as="geometry" />
        </mxCell>
        <mxCell id="1JR1-Q1OFeAUL54vQRaG-4" value="培訓資料準備" style="rounded=0;whiteSpace=wrap;html=1;align=center;fontSize=17;" parent="1JR1-Q1OFeAUL54vQRaG-36" vertex="1">
          <mxGeometry x="282.5" y="115" width="120" height="60" as="geometry" />
        </mxCell>
        <mxCell id="1JR1-Q1OFeAUL54vQRaG-104" style="edgeStyle=orthogonalEdgeStyle;rounded=0;orthogonalLoop=1;jettySize=auto;html=1;exitX=0.5;exitY=1;exitDx=0;exitDy=0;entryX=0.5;entryY=0;entryDx=0;entryDy=0;align=center;fontSize=17;" parent="1JR1-Q1OFeAUL54vQRaG-36" source="1JR1-Q1OFeAUL54vQRaG-5" target="1JR1-Q1OFeAUL54vQRaG-6" edge="1">
          <mxGeometry relative="1" as="geometry" />
        </mxCell>
        <mxCell id="1JR1-Q1OFeAUL54vQRaG-5" value="培訓簽到簽名" style="rounded=0;whiteSpace=wrap;html=1;align=center;fontSize=17;" parent="1JR1-Q1OFeAUL54vQRaG-36" vertex="1">
          <mxGeometry x="282.5" y="195" width="120" height="60" as="geometry" />
        </mxCell>
        <mxCell id="1JR1-Q1OFeAUL54vQRaG-105" style="edgeStyle=orthogonalEdgeStyle;rounded=0;orthogonalLoop=1;jettySize=auto;html=1;exitX=0.5;exitY=1;exitDx=0;exitDy=0;entryX=0.5;entryY=0;entryDx=0;entryDy=0;align=center;fontSize=17;" parent="1JR1-Q1OFeAUL54vQRaG-36" source="1JR1-Q1OFeAUL54vQRaG-6" edge="1">
          <mxGeometry relative="1" as="geometry">
            <mxPoint x="142.5" y="355" as="targetPoint" />
            <Array as="points">
              <mxPoint x="342.5" y="345" />
              <mxPoint x="142.5" y="345" />
            </Array>
          </mxGeometry>
        </mxCell>
        <mxCell id="1JR1-Q1OFeAUL54vQRaG-106" style="edgeStyle=orthogonalEdgeStyle;rounded=0;orthogonalLoop=1;jettySize=auto;html=1;entryX=0.5;entryY=0;entryDx=0;entryDy=0;align=center;fontSize=17;" parent="1JR1-Q1OFeAUL54vQRaG-36" edge="1">
          <mxGeometry relative="1" as="geometry">
            <mxPoint x="342.5" y="345" as="sourcePoint" />
            <mxPoint x="542.5" y="355" as="targetPoint" />
            <Array as="points">
              <mxPoint x="542.5" y="345" />
            </Array>
          </mxGeometry>
        </mxCell>
        <mxCell id="1JR1-Q1OFeAUL54vQRaG-107" style="edgeStyle=orthogonalEdgeStyle;rounded=0;orthogonalLoop=1;jettySize=auto;html=1;entryX=0.5;entryY=0;entryDx=0;entryDy=0;align=center;fontSize=17;" parent="1JR1-Q1OFeAUL54vQRaG-36" source="1JR1-Q1OFeAUL54vQRaG-6" edge="1">
          <mxGeometry relative="1" as="geometry">
            <mxPoint x="406.5" y="355" as="targetPoint" />
            <Array as="points">
              <mxPoint x="342.5" y="345" />
              <mxPoint x="406.5" y="345" />
            </Array>
          </mxGeometry>
        </mxCell>
        <mxCell id="1JR1-Q1OFeAUL54vQRaG-109" style="edgeStyle=orthogonalEdgeStyle;rounded=0;orthogonalLoop=1;jettySize=auto;html=1;entryX=0.5;entryY=0;entryDx=0;entryDy=0;align=center;fontSize=17;" parent="1JR1-Q1OFeAUL54vQRaG-36" source="1JR1-Q1OFeAUL54vQRaG-6" target="1JR1-Q1OFeAUL54vQRaG-9" edge="1">
          <mxGeometry relative="1" as="geometry">
            <Array as="points">
              <mxPoint x="342.5" y="345" />
              <mxPoint x="274.5" y="345" />
            </Array>
          </mxGeometry>
        </mxCell>
        <mxCell id="1JR1-Q1OFeAUL54vQRaG-6" value="通用培訓" style="rounded=0;whiteSpace=wrap;html=1;align=center;fontSize=17;" parent="1JR1-Q1OFeAUL54vQRaG-36" vertex="1">
          <mxGeometry x="282.5" y="275" width="120" height="60" as="geometry" />
        </mxCell>
        <mxCell id="1JR1-Q1OFeAUL54vQRaG-7" value="" style="rounded=0;whiteSpace=wrap;html=1;align=center;fontSize=17;" parent="1JR1-Q1OFeAUL54vQRaG-36" vertex="1">
          <mxGeometry x="342.5" y="355" width="120" height="60" as="geometry" />
        </mxCell>
        <mxCell id="1JR1-Q1OFeAUL54vQRaG-8" value="" style="rounded=0;whiteSpace=wrap;html=1;align=center;fontSize=17;" parent="1JR1-Q1OFeAUL54vQRaG-36" vertex="1">
          <mxGeometry x="478.5" y="355" width="120" height="60" as="geometry" />
        </mxCell>
        <mxCell id="1JR1-Q1OFeAUL54vQRaG-113" style="edgeStyle=orthogonalEdgeStyle;rounded=0;orthogonalLoop=1;jettySize=auto;html=1;endArrow=none;endFill=0;align=center;fontSize=17;" parent="1JR1-Q1OFeAUL54vQRaG-36" source="1JR1-Q1OFeAUL54vQRaG-9" edge="1">
          <mxGeometry relative="1" as="geometry">
            <mxPoint x="274.5" y="425" as="targetPoint" />
            <Array as="points">
              <mxPoint x="274.5" y="425" />
            </Array>
          </mxGeometry>
        </mxCell>
        <mxCell id="1JR1-Q1OFeAUL54vQRaG-9" value="行業培訓" style="rounded=0;whiteSpace=wrap;html=1;align=center;fontSize=17;" parent="1JR1-Q1OFeAUL54vQRaG-36" vertex="1">
          <mxGeometry x="214.5" y="355" width="120" height="60" as="geometry" />
        </mxCell>
        <mxCell id="1JR1-Q1OFeAUL54vQRaG-110" style="edgeStyle=orthogonalEdgeStyle;rounded=0;orthogonalLoop=1;jettySize=auto;html=1;entryX=0.5;entryY=0;entryDx=0;entryDy=0;align=center;fontSize=17;" parent="1JR1-Q1OFeAUL54vQRaG-36" source="1JR1-Q1OFeAUL54vQRaG-10" target="1JR1-Q1OFeAUL54vQRaG-19" edge="1">
          <mxGeometry relative="1" as="geometry">
            <Array as="points">
              <mxPoint x="138.5" y="425" />
              <mxPoint x="342.5" y="425" />
            </Array>
          </mxGeometry>
        </mxCell>
        <mxCell id="1JR1-Q1OFeAUL54vQRaG-10" value="企業概況" style="rounded=0;whiteSpace=wrap;html=1;align=center;fontSize=17;" parent="1JR1-Q1OFeAUL54vQRaG-36" vertex="1">
          <mxGeometry x="78.5" y="355" width="120" height="60" as="geometry" />
        </mxCell>
        <mxCell id="1JR1-Q1OFeAUL54vQRaG-11" value="" style="rounded=0;whiteSpace=wrap;html=1;align=center;fontSize=17;" parent="1JR1-Q1OFeAUL54vQRaG-36" vertex="1">
          <mxGeometry x="342.5" y="355" width="120" height="60" as="geometry" />
        </mxCell>
        <mxCell id="1JR1-Q1OFeAUL54vQRaG-12" value="" style="rounded=0;whiteSpace=wrap;html=1;align=center;fontSize=17;" parent="1JR1-Q1OFeAUL54vQRaG-36" vertex="1">
          <mxGeometry x="478.5" y="355" width="120" height="60" as="geometry" />
        </mxCell>
        <mxCell id="1JR1-Q1OFeAUL54vQRaG-116" style="edgeStyle=orthogonalEdgeStyle;rounded=0;orthogonalLoop=1;jettySize=auto;html=1;endArrow=none;endFill=0;align=center;fontSize=17;" parent="1JR1-Q1OFeAUL54vQRaG-36" source="1JR1-Q1OFeAUL54vQRaG-13" edge="1">
          <mxGeometry relative="1" as="geometry">
            <mxPoint x="402.5" y="425" as="targetPoint" />
            <Array as="points">
              <mxPoint x="402.5" y="425" />
            </Array>
          </mxGeometry>
        </mxCell>
        <mxCell id="1JR1-Q1OFeAUL54vQRaG-13" value="規章制度" style="rounded=0;whiteSpace=wrap;html=1;align=center;fontSize=17;" parent="1JR1-Q1OFeAUL54vQRaG-36" vertex="1">
          <mxGeometry x="342.5" y="355" width="120" height="60" as="geometry" />
        </mxCell>
        <mxCell id="1JR1-Q1OFeAUL54vQRaG-114" style="edgeStyle=orthogonalEdgeStyle;rounded=0;orthogonalLoop=1;jettySize=auto;html=1;entryX=0.5;entryY=0;entryDx=0;entryDy=0;align=center;fontSize=17;" parent="1JR1-Q1OFeAUL54vQRaG-36" source="1JR1-Q1OFeAUL54vQRaG-14" target="1JR1-Q1OFeAUL54vQRaG-19" edge="1">
          <mxGeometry relative="1" as="geometry">
            <Array as="points">
              <mxPoint x="538.5" y="425" />
              <mxPoint x="342.5" y="425" />
            </Array>
          </mxGeometry>
        </mxCell>
        <mxCell id="1JR1-Q1OFeAUL54vQRaG-14" value="產品基礎" style="rounded=0;whiteSpace=wrap;html=1;align=center;fontSize=17;" parent="1JR1-Q1OFeAUL54vQRaG-36" vertex="1">
          <mxGeometry x="478.5" y="355" width="120" height="60" as="geometry" />
        </mxCell>
        <mxCell id="1JR1-Q1OFeAUL54vQRaG-117" style="edgeStyle=orthogonalEdgeStyle;rounded=0;orthogonalLoop=1;jettySize=auto;html=1;entryX=0.5;entryY=0;entryDx=0;entryDy=0;align=center;fontSize=17;" parent="1JR1-Q1OFeAUL54vQRaG-36" source="1JR1-Q1OFeAUL54vQRaG-19" target="1JR1-Q1OFeAUL54vQRaG-20" edge="1">
          <mxGeometry relative="1" as="geometry" />
        </mxCell>
        <mxCell id="1JR1-Q1OFeAUL54vQRaG-19" value="通用培訓簽名" style="rounded=0;whiteSpace=wrap;html=1;align=center;fontSize=17;" parent="1JR1-Q1OFeAUL54vQRaG-36" vertex="1">
          <mxGeometry x="282.5" y="435" width="120" height="60" as="geometry" />
        </mxCell>
        <mxCell id="1JR1-Q1OFeAUL54vQRaG-118" style="edgeStyle=orthogonalEdgeStyle;rounded=0;orthogonalLoop=1;jettySize=auto;html=1;entryX=1;entryY=0.5;entryDx=0;entryDy=0;fillColor=#ffe6cc;strokeColor=#d79b00;align=center;fontSize=17;" parent="1JR1-Q1OFeAUL54vQRaG-36" source="1JR1-Q1OFeAUL54vQRaG-20" target="1JR1-Q1OFeAUL54vQRaG-5" edge="1">
          <mxGeometry relative="1" as="geometry">
            <Array as="points">
              <mxPoint x="630" y="570" />
              <mxPoint x="630" y="240" />
              <mxPoint x="402" y="240" />
            </Array>
          </mxGeometry>
        </mxCell>
        <mxCell id="1JR1-Q1OFeAUL54vQRaG-121" style="edgeStyle=orthogonalEdgeStyle;rounded=0;orthogonalLoop=1;jettySize=auto;html=1;entryX=0.5;entryY=0;entryDx=0;entryDy=0;align=center;fontSize=17;" parent="1JR1-Q1OFeAUL54vQRaG-36" source="1JR1-Q1OFeAUL54vQRaG-20" target="1JR1-Q1OFeAUL54vQRaG-21" edge="1">
          <mxGeometry relative="1" as="geometry" />
        </mxCell>
        <mxCell id="1JR1-Q1OFeAUL54vQRaG-20" value="考核" style="rhombus;whiteSpace=wrap;html=1;fillColor=#f0a30a;fontColor=#ffffff;strokeColor=#BD7000;align=center;fontSize=17;" parent="1JR1-Q1OFeAUL54vQRaG-36" vertex="1">
          <mxGeometry x="269.5" y="515" width="146" height="80" as="geometry" />
        </mxCell>
        <mxCell id="1JR1-Q1OFeAUL54vQRaG-123" style="edgeStyle=orthogonalEdgeStyle;rounded=0;orthogonalLoop=1;jettySize=auto;html=1;entryX=0.5;entryY=0;entryDx=0;entryDy=0;align=center;fontSize=17;" parent="1JR1-Q1OFeAUL54vQRaG-36" source="1JR1-Q1OFeAUL54vQRaG-21" target="1JR1-Q1OFeAUL54vQRaG-22" edge="1">
          <mxGeometry relative="1" as="geometry" />
        </mxCell>
        <mxCell id="1JR1-Q1OFeAUL54vQRaG-21" value="專業培訓" style="rounded=0;whiteSpace=wrap;html=1;align=center;fontSize=17;" parent="1JR1-Q1OFeAUL54vQRaG-36" vertex="1">
          <mxGeometry x="282.5" y="615" width="120" height="60" as="geometry" />
        </mxCell>
        <mxCell id="1JR1-Q1OFeAUL54vQRaG-125" style="edgeStyle=orthogonalEdgeStyle;rounded=0;orthogonalLoop=1;jettySize=auto;html=1;entryX=0.5;entryY=0;entryDx=0;entryDy=0;align=center;fontSize=17;" parent="1JR1-Q1OFeAUL54vQRaG-36" source="1JR1-Q1OFeAUL54vQRaG-22" target="1JR1-Q1OFeAUL54vQRaG-28" edge="1">
          <mxGeometry relative="1" as="geometry" />
        </mxCell>
        <mxCell id="1JR1-Q1OFeAUL54vQRaG-126" style="edgeStyle=orthogonalEdgeStyle;rounded=0;orthogonalLoop=1;jettySize=auto;html=1;entryX=0.5;entryY=0;entryDx=0;entryDy=0;align=center;fontSize=17;" parent="1JR1-Q1OFeAUL54vQRaG-36" source="1JR1-Q1OFeAUL54vQRaG-22" target="1JR1-Q1OFeAUL54vQRaG-25" edge="1">
          <mxGeometry relative="1" as="geometry">
            <Array as="points">
              <mxPoint x="342.5" y="765" />
              <mxPoint x="201.5" y="765" />
            </Array>
          </mxGeometry>
        </mxCell>
        <mxCell id="1JR1-Q1OFeAUL54vQRaG-127" style="edgeStyle=orthogonalEdgeStyle;rounded=0;orthogonalLoop=1;jettySize=auto;html=1;entryX=0.5;entryY=0;entryDx=0;entryDy=0;align=center;fontSize=17;" parent="1JR1-Q1OFeAUL54vQRaG-36" source="1JR1-Q1OFeAUL54vQRaG-22" target="1JR1-Q1OFeAUL54vQRaG-29" edge="1">
          <mxGeometry relative="1" as="geometry">
            <Array as="points">
              <mxPoint x="342.5" y="765" />
              <mxPoint x="479.5" y="765" />
            </Array>
          </mxGeometry>
        </mxCell>
        <mxCell id="1JR1-Q1OFeAUL54vQRaG-22" value="專業培訓簽名" style="rounded=0;whiteSpace=wrap;html=1;align=center;fontSize=17;" parent="1JR1-Q1OFeAUL54vQRaG-36" vertex="1">
          <mxGeometry x="282.5" y="695" width="120" height="60" as="geometry" />
        </mxCell>
        <mxCell id="1JR1-Q1OFeAUL54vQRaG-23" value="" style="rounded=0;whiteSpace=wrap;html=1;align=center;fontSize=17;" parent="1JR1-Q1OFeAUL54vQRaG-36" vertex="1">
          <mxGeometry x="283.5" y="775" width="120" height="60" as="geometry" />
        </mxCell>
        <mxCell id="1JR1-Q1OFeAUL54vQRaG-24" value="" style="rounded=0;whiteSpace=wrap;html=1;align=center;fontSize=17;" parent="1JR1-Q1OFeAUL54vQRaG-36" vertex="1">
          <mxGeometry x="419.5" y="775" width="120" height="60" as="geometry" />
        </mxCell>
        <mxCell id="1JR1-Q1OFeAUL54vQRaG-128" style="edgeStyle=orthogonalEdgeStyle;rounded=0;orthogonalLoop=1;jettySize=auto;html=1;entryX=0.5;entryY=0;entryDx=0;entryDy=0;align=center;fontSize=17;" parent="1JR1-Q1OFeAUL54vQRaG-36" source="1JR1-Q1OFeAUL54vQRaG-25" target="1JR1-Q1OFeAUL54vQRaG-35" edge="1">
          <mxGeometry relative="1" as="geometry">
            <Array as="points">
              <mxPoint x="201.5" y="845" />
              <mxPoint x="342.5" y="845" />
            </Array>
          </mxGeometry>
        </mxCell>
        <mxCell id="1JR1-Q1OFeAUL54vQRaG-25" value="崗位技能" style="rounded=0;whiteSpace=wrap;html=1;align=center;fontSize=17;" parent="1JR1-Q1OFeAUL54vQRaG-36" vertex="1">
          <mxGeometry x="141.5" y="775" width="120" height="60" as="geometry" />
        </mxCell>
        <mxCell id="1JR1-Q1OFeAUL54vQRaG-26" value="" style="rounded=0;whiteSpace=wrap;html=1;align=center;fontSize=17;" parent="1JR1-Q1OFeAUL54vQRaG-36" vertex="1">
          <mxGeometry x="283.5" y="775" width="120" height="60" as="geometry" />
        </mxCell>
        <mxCell id="1JR1-Q1OFeAUL54vQRaG-27" value="" style="rounded=0;whiteSpace=wrap;html=1;align=center;fontSize=17;" parent="1JR1-Q1OFeAUL54vQRaG-36" vertex="1">
          <mxGeometry x="419.5" y="775" width="120" height="60" as="geometry" />
        </mxCell>
        <mxCell id="1JR1-Q1OFeAUL54vQRaG-131" style="edgeStyle=orthogonalEdgeStyle;rounded=0;orthogonalLoop=1;jettySize=auto;html=1;align=center;fontSize=17;" parent="1JR1-Q1OFeAUL54vQRaG-36" source="1JR1-Q1OFeAUL54vQRaG-28" edge="1">
          <mxGeometry relative="1" as="geometry">
            <mxPoint x="343.5" y="855" as="targetPoint" />
          </mxGeometry>
        </mxCell>
        <mxCell id="1JR1-Q1OFeAUL54vQRaG-28" value="產品知識" style="rounded=0;whiteSpace=wrap;html=1;align=center;fontSize=17;" parent="1JR1-Q1OFeAUL54vQRaG-36" vertex="1">
          <mxGeometry x="283.5" y="775" width="120" height="60" as="geometry" />
        </mxCell>
        <mxCell id="1JR1-Q1OFeAUL54vQRaG-132" style="edgeStyle=orthogonalEdgeStyle;rounded=0;orthogonalLoop=1;jettySize=auto;html=1;entryX=0.5;entryY=0;entryDx=0;entryDy=0;align=center;fontSize=17;" parent="1JR1-Q1OFeAUL54vQRaG-36" source="1JR1-Q1OFeAUL54vQRaG-29" target="1JR1-Q1OFeAUL54vQRaG-35" edge="1">
          <mxGeometry relative="1" as="geometry">
            <Array as="points">
              <mxPoint x="479.5" y="845" />
              <mxPoint x="342.5" y="845" />
            </Array>
          </mxGeometry>
        </mxCell>
        <mxCell id="1JR1-Q1OFeAUL54vQRaG-29" value="工作流程" style="rounded=0;whiteSpace=wrap;html=1;align=center;fontSize=17;" parent="1JR1-Q1OFeAUL54vQRaG-36" vertex="1">
          <mxGeometry x="419.5" y="775" width="120" height="60" as="geometry" />
        </mxCell>
        <mxCell id="1JR1-Q1OFeAUL54vQRaG-134" style="edgeStyle=orthogonalEdgeStyle;rounded=0;orthogonalLoop=1;jettySize=auto;html=1;entryX=0.5;entryY=1;entryDx=0;entryDy=0;align=center;fontSize=17;" parent="1JR1-Q1OFeAUL54vQRaG-36" source="1JR1-Q1OFeAUL54vQRaG-35" target="1JR1-Q1OFeAUL54vQRaG-66" edge="1">
          <mxGeometry relative="1" as="geometry" />
        </mxCell>
        <mxCell id="1JR1-Q1OFeAUL54vQRaG-136" style="edgeStyle=orthogonalEdgeStyle;rounded=0;orthogonalLoop=1;jettySize=auto;html=1;entryX=1;entryY=0.5;entryDx=0;entryDy=0;fillColor=#ffe6cc;strokeColor=#d79b00;align=center;fontSize=17;" parent="1JR1-Q1OFeAUL54vQRaG-36" source="1JR1-Q1OFeAUL54vQRaG-35" target="1JR1-Q1OFeAUL54vQRaG-21" edge="1">
          <mxGeometry relative="1" as="geometry">
            <mxPoint x="723" y="660" as="targetPoint" />
            <Array as="points">
              <mxPoint x="630" y="910" />
              <mxPoint x="630" y="660" />
              <mxPoint x="402" y="660" />
            </Array>
          </mxGeometry>
        </mxCell>
        <mxCell id="1JR1-Q1OFeAUL54vQRaG-35" value="考核" style="rhombus;whiteSpace=wrap;html=1;fillColor=#f0a30a;fontColor=#ffffff;strokeColor=#BD7000;align=center;fontSize=17;" parent="1JR1-Q1OFeAUL54vQRaG-36" vertex="1">
          <mxGeometry x="269.5" y="855" width="146" height="80" as="geometry" />
        </mxCell>
        <mxCell id="1JR1-Q1OFeAUL54vQRaG-66" value="正式上班" style="rounded=0;whiteSpace=wrap;html=1;direction=west;align=center;fontSize=17;" parent="1JR1-Q1OFeAUL54vQRaG-36" vertex="1">
          <mxGeometry x="283.5" y="955" width="120" height="60" as="geometry" />
        </mxCell>
        <mxCell id="1JR1-Q1OFeAUL54vQRaG-67" value="結束" style="strokeWidth=2;html=1;shape=mxgraph.flowchart.terminator;whiteSpace=wrap;fillColor=#f0a30a;fontColor=#ffffff;strokeColor=#BD7000;align=center;fontSize=17;" parent="1JR1-Q1OFeAUL54vQRaG-36" vertex="1">
          <mxGeometry x="293.5" y="1035" width="100" height="60" as="geometry" />
        </mxCell>
        <mxCell id="1JR1-Q1OFeAUL54vQRaG-135" style="edgeStyle=orthogonalEdgeStyle;rounded=0;orthogonalLoop=1;jettySize=auto;html=1;entryX=0.5;entryY=0;entryDx=0;entryDy=0;entryPerimeter=0;align=center;fontSize=17;" parent="1JR1-Q1OFeAUL54vQRaG-36" source="1JR1-Q1OFeAUL54vQRaG-66" target="1JR1-Q1OFeAUL54vQRaG-67" edge="1">
          <mxGeometry relative="1" as="geometry" />
        </mxCell>
        <mxCell id="1JR1-Q1OFeAUL54vQRaG-69" value="負責人" style="swimlane;startSize=23;align=center;fontSize=17;" parent="1" vertex="1">
          <mxGeometry x="827" y="-20" width="193" height="1130" as="geometry" />
        </mxCell>
        <mxCell id="1JR1-Q1OFeAUL54vQRaG-137" value="人力資源部" style="text;html=1;align=center;verticalAlign=middle;resizable=0;points=[];autosize=1;strokeColor=none;fillColor=none;fontSize=17;" parent="1JR1-Q1OFeAUL54vQRaG-69" vertex="1">
          <mxGeometry x="41.5" y="225" width="110" height="30" as="geometry" />
        </mxCell>
        <mxCell id="1JR1-Q1OFeAUL54vQRaG-138" value="新員工" style="text;html=1;align=center;verticalAlign=middle;resizable=0;points=[];autosize=1;strokeColor=none;fillColor=none;fontSize=17;" parent="1JR1-Q1OFeAUL54vQRaG-69" vertex="1">
          <mxGeometry x="61.5" y="390" width="70" height="30" as="geometry" />
        </mxCell>
        <mxCell id="1JR1-Q1OFeAUL54vQRaG-139" value="人力資源部" style="text;html=1;align=center;verticalAlign=middle;resizable=0;points=[];autosize=1;strokeColor=none;fillColor=none;fontSize=17;" parent="1JR1-Q1OFeAUL54vQRaG-69" vertex="1">
          <mxGeometry x="41.5" y="510" width="110" height="30" as="geometry" />
        </mxCell>
        <mxCell id="1JR1-Q1OFeAUL54vQRaG-140" value="資訊科技部" style="text;html=1;align=center;verticalAlign=middle;resizable=0;points=[];autosize=1;strokeColor=none;fillColor=none;fontSize=17;" parent="1JR1-Q1OFeAUL54vQRaG-69" vertex="1">
          <mxGeometry x="41.5" y="605" width="110" height="30" as="geometry" />
        </mxCell>
        <mxCell id="1JR1-Q1OFeAUL54vQRaG-141" value="人力資源部" style="text;html=1;align=center;verticalAlign=middle;resizable=0;points=[];autosize=1;strokeColor=none;fillColor=none;fontSize=17;" parent="1JR1-Q1OFeAUL54vQRaG-69" vertex="1">
          <mxGeometry x="41.5" y="895" width="110" height="30" as="geometry" />
        </mxCell>
        <mxCell id="1JR1-Q1OFeAUL54vQRaG-143" value="人力資源部" style="text;html=1;align=center;verticalAlign=middle;resizable=0;points=[];autosize=1;strokeColor=none;fillColor=none;fontSize=17;" parent="1JR1-Q1OFeAUL54vQRaG-69" vertex="1">
          <mxGeometry x="41.5" y="1065" width="110" height="30" as="geometry" />
        </mxCell>
        <mxCell id="1JR1-Q1OFeAUL54vQRaG-101" value="說明" style="swimlane;align=center;fontSize=17;" parent="1" vertex="1">
          <mxGeometry x="1020" y="-20" width="320" height="1130" as="geometry" />
        </mxCell>
        <mxCell id="1JR1-Q1OFeAUL54vQRaG-145" value="●新員工辦理入司手續後，&lt;div style=&quot;font-size: 17px;&quot;&gt;發放[員工入職培訓引導表]&lt;/div&gt;" style="text;html=1;align=left;verticalAlign=middle;resizable=0;points=[];autosize=1;strokeColor=none;fillColor=none;fontSize=17;" parent="1JR1-Q1OFeAUL54vQRaG-101" vertex="1">
          <mxGeometry x="50" y="215" width="220" height="50" as="geometry" />
        </mxCell>
        <mxCell id="1JR1-Q1OFeAUL54vQRaG-146" value="●依據人員職位和規模，確&lt;div style=&quot;font-size: 17px;&quot;&gt;定培訓方案和準備資料&lt;/div&gt;" style="text;html=1;align=left;verticalAlign=middle;resizable=0;points=[];autosize=1;strokeColor=none;fillColor=none;fontSize=17;" parent="1JR1-Q1OFeAUL54vQRaG-101" vertex="1">
          <mxGeometry x="50" y="380" width="220" height="50" as="geometry" />
        </mxCell>
        <mxCell id="JgWyqSzBrV3Xms_BTZeQ-1" value="●人力資源部提供[培訓簽名&lt;div style=&quot;font-size: 17px;&quot;&gt;表]，員工報到簽名&lt;/div&gt;" style="text;html=1;align=left;verticalAlign=middle;resizable=0;points=[];autosize=1;strokeColor=none;fillColor=none;fontSize=17;" vertex="1" parent="1JR1-Q1OFeAUL54vQRaG-101">
          <mxGeometry x="45" y="505" width="230" height="50" as="geometry" />
        </mxCell>
        <mxCell id="JgWyqSzBrV3Xms_BTZeQ-6" value="●通用培訓採集中培訓，陪&lt;div style=&quot;font-size: 17px;&quot;&gt;訊內容以[新員工入職培訓&lt;/div&gt;&lt;div style=&quot;font-size: 17px;&quot;&gt;資料]為主，以授課、板書&lt;/div&gt;&lt;div style=&quot;font-size: 17px;&quot;&gt;和電腦講解&lt;/div&gt;" style="text;html=1;align=left;verticalAlign=middle;resizable=0;points=[];autosize=1;strokeColor=none;fillColor=none;fontSize=17;" vertex="1" parent="1JR1-Q1OFeAUL54vQRaG-101">
          <mxGeometry x="50" y="570" width="220" height="100" as="geometry" />
        </mxCell>
        <mxCell id="JgWyqSzBrV3Xms_BTZeQ-7" value="●員工在[培訓簽到表]的&lt;div style=&quot;font-size: 17px;&quot;&gt;&quot;本人已接受以上內容培訓&quot;&lt;/div&gt;&lt;div style=&quot;font-size: 17px;&quot;&gt;欄簽名&lt;/div&gt;" style="text;html=1;align=left;verticalAlign=middle;resizable=0;points=[];autosize=1;strokeColor=none;fillColor=none;fontSize=17;" vertex="1" parent="1JR1-Q1OFeAUL54vQRaG-101">
          <mxGeometry x="50" y="875" width="220" height="70" as="geometry" />
        </mxCell>
        <mxCell id="JgWyqSzBrV3Xms_BTZeQ-9" value="●考核合格進入專業培訓結&lt;div style=&quot;font-size: 17px;&quot;&gt;業，不合格充新參加培訓，&lt;/div&gt;&lt;div style=&quot;font-size: 17px;&quot;&gt;兩次不合格淘汰&lt;/div&gt;" style="text;html=1;align=left;verticalAlign=middle;resizable=0;points=[];autosize=1;strokeColor=none;fillColor=none;fontSize=17;" vertex="1" parent="1JR1-Q1OFeAUL54vQRaG-101">
          <mxGeometry x="45" y="1045" width="230" height="70" as="geometry" />
        </mxCell>
        <mxCell id="JgWyqSzBrV3Xms_BTZeQ-11" value="資訊科技：&lt;font style=&quot;font-size: 36px;&quot; color=&quot;#ff8000&quot;&gt;陳柏均&lt;/font&gt;員工入職培訓流程" style="rounded=0;whiteSpace=wrap;html=1;fillColor=#1ba1e2;fontColor=#ffffff;strokeColor=#006EAF;fontSize=36;" vertex="1" parent="1">
          <mxGeometry x="220" y="-100" width="800" height="60" as="geometry" />
        </mxCell>
        <mxCell id="JgWyqSzBrV3Xms_BTZeQ-12" value="學號：&lt;font color=&quot;#ff0000&quot;&gt;33050123&lt;/font&gt;" style="rounded=0;whiteSpace=wrap;html=1;fontSize=23;fillColor=#ffe6cc;strokeColor=#d79b00;strokeWidth=2;" vertex="1" parent="1">
          <mxGeometry x="1040" y="-100" width="300" height="60" as="geometry" />
        </mxCell>
      </root>
    </mxGraphModel>
  </diagram>
</mxfile>
